#N canvas 0 26 753 697 10;
#X declare -lib mrpeach;
#X text 17 38 The psOSCd server should be launched as follows:;
#X text 17 81 Example:;
#X text 17 53 psOSCd [-v] -m <num markers> -p <phasespace server> -o
<osc server + port>;
#X text 109 151 this osc server listens on port 4600 (as in the example)
;
#N canvas 0 0 450 300 (subpatch) 0;
#X array marker1_x 1024 float 0;
#X coords 0 3000 1023 -3000 200 140 1;
#X restore 456 55 graph;
#N canvas 0 0 450 300 (subpatch) 0;
#X array marker1_y 1024 float 0;
#X coords 0 3000 1023 0 200 140 1;
#X restore 456 213 graph;
#N canvas 0 0 450 300 (subpatch) 0;
#X array marker1_z 1024 float 0;
#X coords 0 3000 1023 -3000 200 140 1;
#X restore 455 375 graph;
#X obj 312 506 tabwrite marker1_x;
#X obj 388 456 counter;
#X msg 388 432 max 1024;
#X floatatom 388 482 5 0 0 0 - - -;
#X floatatom 21 343 5 0 0 0 - - marker_x;
#X floatatom 60 343 5 0 0 0 - - marker_y;
#X floatatom 101 343 5 0 0 0 - - marker_z;
#X obj 323 528 tabwrite marker1_y;
#X obj 337 550 tabwrite marker1_z;
#X obj 388 409 loadbang;
#X obj 684 98 nbx 5 60 -1e+37 1e+37 0 0 empty marker_x X 0 -35 0 64
-262144 -1 -1 -2894.56 256;
#X obj 690 252 nbx 5 64 -1e+37 1e+37 0 0 empty marker_y Y 0 -35 0 64
-258113 -262144 -258113 2514.65 256;
#X obj 691 410 nbx 5 64 -1e+37 1e+37 0 0 empty marker_z Z 0 -35 0 64
-4034 -262144 -4034 -2283.03 256;
#X obj 22 509 qlist;
#X msg 74 484 clear;
#X msg 125 483 write markers.txt;
#X floatatom 22 538 5 0 0 0 - - -;
#X obj 131 439 bng 15 250 50 0 empty empty empty 17 7 0 10 -262144
-1 -1;
#X msg 124 458 print;
#X obj 21 298 t l b;
#X obj 22 429 pack f f f f;
#X obj 22 380 bng 15 250 50 0 empty empty empty 17 7 0 10 -262144 -1
-1;
#X obj 22 403 realtime;
#X msg 22 454 add \$1 \$2 \$3 \$4;
#X obj 21 314 unpack f f f;
#X obj 312 273 r marker_x;
#X obj 323 317 r marker_y;
#X obj 337 361 r marker_z;
#X obj 22 273 spigot;
#X obj 69 273 spigot;
#X obj 116 273 spigot;
#X obj 163 273 spigot;
#X obj 273 181 hradio 30 1 0 4 empty empty select_marker 0 -9 0 10
-260097 -262144 -258113 3;
#X obj 273 217 sel 0 1 2 3;
#X msg 36 235 1;
#X msg 46 245 0;
#X msg 89 236 1;
#X msg 99 246 0;
#X msg 135 235 1;
#X msg 145 245 0;
#X msg 183 235 1;
#X msg 193 245 0;
#X obj 312 296 f;
#X obj 323 338 f;
#X obj 337 382 f;
#X obj 388 226 metro 10;
#X obj 402 181 tgl 35 0 empty empty plot 0 -9 0 10 -159808 -262144
-159808 0 1;
#X obj 388 247 t b b;
#X text 16 99 ./psOSCd -m 4 -p localhost -o localhost:4600;
#X text 18 11 psOSCd streaming monitoring console;
#X obj 22 122 udpreceive 4600;
#X obj 22 152 unpackOSC;
#X obj 22 183 routeOSC /m_00 /m_01 /m_02 /m_03;
#X obj 906 501 import mrpeach;
#X connect 8 0 7 1;
#X connect 8 0 10 0;
#X connect 8 0 14 1;
#X connect 8 0 15 1;
#X connect 9 0 8 0;
#X connect 16 0 9 0;
#X connect 20 0 23 0;
#X connect 21 0 20 0;
#X connect 21 0 28 0;
#X connect 22 0 20 0;
#X connect 24 0 20 0;
#X connect 25 0 20 0;
#X connect 26 0 31 0;
#X connect 26 1 29 1;
#X connect 27 0 30 0;
#X connect 28 0 29 0;
#X connect 29 0 27 0;
#X connect 30 0 20 0;
#X connect 31 0 11 0;
#X connect 31 1 12 0;
#X connect 31 2 13 0;
#X connect 32 0 49 1;
#X connect 33 0 50 1;
#X connect 34 0 51 1;
#X connect 35 0 26 0;
#X connect 36 0 26 0;
#X connect 37 0 26 0;
#X connect 38 0 26 0;
#X connect 39 0 40 0;
#X connect 40 0 41 0;
#X connect 40 0 44 0;
#X connect 40 0 46 0;
#X connect 40 0 48 0;
#X connect 40 1 43 0;
#X connect 40 1 42 0;
#X connect 40 1 46 0;
#X connect 40 1 48 0;
#X connect 40 2 45 0;
#X connect 40 2 42 0;
#X connect 40 2 44 0;
#X connect 40 2 48 0;
#X connect 40 3 47 0;
#X connect 40 3 42 0;
#X connect 40 3 44 0;
#X connect 40 3 46 0;
#X connect 41 0 35 1;
#X connect 42 0 35 1;
#X connect 43 0 36 1;
#X connect 44 0 36 1;
#X connect 45 0 37 1;
#X connect 46 0 37 1;
#X connect 47 0 38 1;
#X connect 48 0 38 1;
#X connect 49 0 7 0;
#X connect 50 0 14 0;
#X connect 51 0 15 0;
#X connect 52 0 54 0;
#X connect 53 0 52 0;
#X connect 54 0 49 0;
#X connect 54 0 50 0;
#X connect 54 0 51 0;
#X connect 54 1 8 0;
#X connect 57 0 58 0;
#X connect 58 0 59 0;
#X connect 59 0 35 0;
#X connect 59 1 36 0;
#X connect 59 2 37 0;
#X connect 59 3 38 0;
