#N canvas 661 34 536 657 10;
#X obj 24 590 sendOSC;
#X text 32 4 OSC control panel for psOSCd;
#X msg 74 26 connect localhost 4599;
#X floatatom 63 621 5 0 0 0 - - -;
#X text 105 620 bundledepth;
#X floatatom 24 621 5 0 0 0 - - -;
#X msg 100 129 send /verbose 1;
#X text 206 129 start verbose messaging;
#X msg 100 153 send /verbose 0;
#X text 206 153 stop verbose messaging;
#X msg 74 47 disconnect;
#X msg 89 102 send /this 1 3 5 6 7 8 2.3;
#X msg 105 182 send /start;
#X msg 105 206 send /stop;
#X msg 77 71 send /quit;
#X text 153 70 psOSCd quit (stops daemon);
#X msg 114 237 send /connect 4023;
#X msg 114 261 send /disconnect;
#X text 230 236 connect to query values from this server;
#X text 230 260 disconnect when you're done;
#N canvas 0 0 450 300 server_4023 1;
#X obj 59 43 dumpOSC 4023;
#X obj 59 77 print server_4023;
#X connect 0 0 1 0;
#X restore 406 257 pd server_4023;
#X msg 114 316 send /frequency 250;
#X text 255 302 change streaming frequency;
#X msg 114 293 send /frequency 10;
#X msg 118 357 send /query_markers 3 5 7 9;
#X text 200 180 start streaming;
#X text 200 202 stop streaming;
#X connect 0 0 5 0;
#X connect 0 1 3 0;
#X connect 2 0 0 0;
#X connect 6 0 0 0;
#X connect 8 0 0 0;
#X connect 10 0 0 0;
#X connect 11 0 0 0;
#X connect 12 0 0 0;
#X connect 13 0 0 0;
#X connect 14 0 0 0;
#X connect 16 0 0 0;
#X connect 17 0 0 0;
#X connect 21 0 0 0;
#X connect 23 0 0 0;
#X connect 24 0 0 0;
