#N canvas 0 26 753 697 10;
#X declare -lib mrpeach;
#X text 15 65 Example:;
#X text 109 139 this osc server listens on port 4600 (as in the example)
;
#N canvas 0 0 450 300 (subpatch) 0;
#X array rigid_body_x 1024 float 0;
#X coords 0 3000 1023 -3000 200 70 1;
#X restore 456 55 graph;
#N canvas 0 0 450 300 (subpatch) 0;
#X array rigid_body_y 1024 float 0;
#X coords 0 3000 1023 0 200 70 1;
#X restore 455 145 graph;
#N canvas 0 0 450 300 (subpatch) 0;
#X array rigid_body_z 1024 float 0;
#X coords 0 3000 1023 -3000 200 70 1;
#X restore 455 233 graph;
#X obj 388 420 counter;
#X msg 388 401 max 1024;
#X floatatom 388 440 5 0 0 0 - - -;
#X floatatom 21 331 5 0 0 0 - - rigid_body_x;
#X floatatom 60 331 5 0 0 0 - - rigid_body_y;
#X floatatom 101 331 5 0 0 0 - - rigid_body_z;
#X obj 388 382 loadbang;
#X obj 684 62 nbx 5 60 -1e+37 1e+37 0 0 empty marker_x X 0 -25 0 64
-262144 -1 -1 0 256;
#X obj 688 184 nbx 5 64 -1e+37 1e+37 0 0 empty marker_y Y 0 -25 0 64
-258113 -262144 -258113 0 256;
#X obj 686 314 nbx 5 64 -1e+37 1e+37 0 0 empty marker_z Z 0 -25 0 64
-4034 -262144 -4034 0 256;
#X obj 22 497 qlist;
#X msg 74 472 clear;
#X msg 125 471 write markers.txt;
#X floatatom 22 526 5 0 0 0 - - -;
#X obj 153 427 bng 15 250 50 0 empty empty empty 17 7 0 10 -262144
-1 -1;
#X msg 146 446 print;
#X obj 21 286 t l b;
#X obj 22 368 bng 15 250 50 0 empty empty empty 17 7 0 10 -262144 -1
-1;
#X obj 22 391 realtime;
#X obj 22 261 spigot;
#X obj 69 261 spigot;
#X obj 273 169 hradio 30 1 0 2 empty empty select_rigid_body 0 -11
0 9 -260097 -262144 -258113 0;
#X msg 36 223 1;
#X msg 46 233 0;
#X msg 89 224 1;
#X msg 99 234 0;
#X obj 266 284 f;
#X obj 277 326 f;
#X obj 291 370 f;
#X obj 388 214 metro 10;
#X obj 402 169 tgl 35 0 empty empty plot 0 -9 0 10 -159808 -262144
-159808 0 1;
#X obj 388 235 t b b;
#X text 18 11 psOSCd rigid body streaming monitoring console;
#X text 17 38 The psOSCd server should be launched with a configuration
;
#X text 16 51 file that specifies a couple of rigid bodies.;
#X text 11 81 ./psOSCd -c doc/psOSCd.conf.rigid.example;
#X obj 273 205 sel 0 1;
#X obj 685 445 nbx 5 64 -1e+37 1e+37 0 0 empty pose POSE 0 -25 0 64
-4160 -262144 -4160 0 256;
#N canvas 0 0 450 300 (subpatch) 0;
#X array pose 1024 float 0;
#X coords 0 5 1023 -5 200 140 1;
#X restore 455 320 graph;
#X obj 306 526 tabwrite pose;
#X obj 306 415 f;
#X obj 306 394 r pose;
#X obj 22 302 unpack f f f f;
#X floatatom 139 331 5 0 0 0 - - pose;
#X obj 22 417 pack f f f f f;
#X msg 22 442 add \$1 \$2 \$3 \$4 \$5;
#X floatatom 230 523 5 0 0 0 - - -;
#X obj 22 171 routeOSC /rb_00 /rb_01;
#X obj 266 261 r rigid_body_x;
#X obj 277 305 r rigid_body_y;
#X obj 291 349 r rigid_body_z;
#X obj 266 458 tabwrite rigid_body_x;
#X obj 277 480 tabwrite rigid_body_y;
#X obj 291 502 tabwrite rigid_body_z;
#X obj 900 536 import mrpeach;
#X obj 22 108 udpreceive 4600;
#X obj 22 140 unpackOSC;
#X connect 5 0 7 0;
#X connect 5 0 44 1;
#X connect 5 0 56 1;
#X connect 5 0 57 1;
#X connect 5 0 58 1;
#X connect 6 0 5 0;
#X connect 11 0 6 0;
#X connect 15 0 18 0;
#X connect 16 0 15 0;
#X connect 16 0 22 0;
#X connect 17 0 15 0;
#X connect 19 0 15 0;
#X connect 20 0 15 0;
#X connect 21 0 47 0;
#X connect 21 1 23 1;
#X connect 22 0 23 0;
#X connect 23 0 49 0;
#X connect 24 0 21 0;
#X connect 25 0 21 0;
#X connect 26 0 41 0;
#X connect 27 0 24 1;
#X connect 28 0 24 1;
#X connect 29 0 25 1;
#X connect 30 0 25 1;
#X connect 31 0 56 0;
#X connect 32 0 57 0;
#X connect 33 0 58 0;
#X connect 34 0 36 0;
#X connect 35 0 34 0;
#X connect 36 0 31 0;
#X connect 36 0 32 0;
#X connect 36 0 33 0;
#X connect 36 0 45 0;
#X connect 36 1 5 0;
#X connect 41 0 27 0;
#X connect 41 0 30 0;
#X connect 41 1 29 0;
#X connect 41 1 28 0;
#X connect 41 2 28 0;
#X connect 41 2 30 0;
#X connect 45 0 44 0;
#X connect 45 0 51 0;
#X connect 46 0 45 1;
#X connect 47 0 8 0;
#X connect 47 1 9 0;
#X connect 47 2 10 0;
#X connect 47 3 48 0;
#X connect 49 0 50 0;
#X connect 50 0 15 0;
#X connect 52 0 24 0;
#X connect 52 1 25 0;
#X connect 53 0 31 1;
#X connect 54 0 32 1;
#X connect 55 0 33 1;
#X connect 60 0 61 0;
#X connect 61 0 52 0;
